<svg width="14" height="14" viewBox="0 0 7 7" fill="none" xmlns="http://www.w3.org/2000/svg">
  <path
    d="M0.294434 3.85024C0.294434 2.11024 1.70443 0.700244 3.44443 0.700244C5.18443 0.700244 6.58443 2.11024 6.58443 3.85024C6.58443 5.59024 5.18443 7.00024 3.44443 7.00024C1.70443 7.00024 0.294434 5.59024 0.294434 3.85024Z"
    fill="#02c463" />
  <path
    d="M3.83454 2.2501L3.72454 4.5801C3.72454 4.7401 3.58454 4.8601 3.44454 4.8401C3.28454 4.8401 3.16454 4.7201 3.15454 4.5801L3.05454 2.2501C3.04454 1.7201 3.85454 1.7201 3.83454 2.2501Z"
    fill="white" />
  <path
    d="M3.77353 5.5201C3.77353 5.7001 3.62353 5.8501 3.44353 5.8501C3.26353 5.8501 3.11353 5.7001 3.11353 5.5201C3.11353 5.3401 3.26353 5.1901 3.44353 5.1901C3.62353 5.1901 3.77353 5.3401 3.77353 5.5201Z"
    fill="white" />
</svg>