<svg width="15" height="14" viewBox="0 0 8 8" fill="none" xmlns="http://www.w3.org/2000/svg">
  <path
    d="M2.4825 4.33029H1.9025V3.75029H2.4825V4.33029ZM2.6725 3.38029H1.7225C1.6125 3.38029 1.5325 3.46029 1.5325 3.57029V4.52029C1.5325 4.62029 1.6125 4.71029 1.7225 4.71029H2.6725C2.7725 4.71029 2.8625 4.62029 2.8625 4.52029V3.57029C2.8625 3.46029 2.7725 3.38029 2.6725 3.38029ZM4.4625 4.33029H3.8725V3.75029H4.4625V4.33029ZM4.6425 3.38029H3.6925C3.5925 3.38029 3.5125 3.46029 3.5125 3.57029V4.52029C3.5125 4.62029 3.5925 4.71029 3.6925 4.71029H4.6425C4.7525 4.71029 4.8325 4.62029 4.8325 4.52029V3.57029C4.8325 3.46029 4.7525 3.38029 4.6425 3.38029ZM6.4325 4.33029H5.8625V3.75029H6.4325V4.33029ZM6.6225 3.38029H5.6725C5.5725 3.38029 5.4825 3.46029 5.4825 3.57029V4.52029C5.4825 4.62029 5.5725 4.71029 5.6725 4.71029H6.6225C6.7225 4.71029 6.8125 4.62029 6.8125 4.52029V3.57029C6.8125 3.46029 6.7225 3.38029 6.6225 3.38029ZM4.4625 6.32029H3.8725V5.75029H4.4625V6.32029ZM4.6425 5.37029H3.6925C3.5925 5.37029 3.5125 5.46029 3.5125 5.56029V6.51029C3.5125 6.61029 3.5925 6.70029 3.6925 6.70029H4.6425C4.7525 6.70029 4.8325 6.61029 4.8325 6.51029V5.56029C4.8325 5.46029 4.7525 5.37029 4.6425 5.37029ZM6.4325 6.32029H5.8625V5.75029H6.4325V6.32029ZM6.6225 5.37029H5.6725C5.5725 5.37029 5.4825 5.46029 5.4825 5.56029V6.51029C5.4825 6.61029 5.5725 6.70029 5.6725 6.70029H6.6225C6.7225 6.70029 6.8125 6.61029 6.8125 6.51029V5.56029C6.8125 5.46029 6.7225 5.37029 6.6225 5.37029ZM2.4825 6.32029H1.9025V5.75029H2.4825V6.32029ZM2.6725 5.37029H1.7225C1.6125 5.37029 1.5325 5.46029 1.5325 5.56029V6.51029C1.5325 6.61029 1.6125 6.70029 1.7225 6.70029H2.6725C2.7725 6.70029 2.8625 6.61029 2.8625 6.51029V5.56029C2.8625 5.46029 2.7725 5.37029 2.6725 5.37029ZM7.0725 7.42029H1.2625C0.9425 7.42029 0.6925 7.17029 0.6925 6.85029V2.65029H7.6625V6.85029C7.6625 7.17029 7.4025 7.42029 7.0725 7.42029ZM1.2625 1.21029H2.0025V1.55029C2.0025 1.65029 2.0925 1.74029 2.1925 1.74029C2.2925 1.74029 2.3925 1.65029 2.3925 1.55029V1.21029H3.9725V1.55029C3.9725 1.65029 4.0725 1.74029 4.1725 1.74029C4.2725 1.74029 4.3625 1.65029 4.3625 1.55029V1.21029H5.9625V1.55029C5.9625 1.65029 6.0425 1.74029 6.1525 1.74029C6.2525 1.74029 6.3325 1.65029 6.3325 1.55029V1.21029H7.0725C7.4025 1.21029 7.6625 1.47029 7.6625 1.79029V2.28029H0.6925V1.79029C0.6925 1.47029 0.9425 1.21029 1.2625 1.21029ZM7.0725 0.840293H6.3325V0.260293C6.3325 0.160293 6.2525 0.0702925 6.1525 0.0702925C6.0425 0.0702925 5.9625 0.160293 5.9625 0.260293V0.840293H4.3625V0.260293C4.3625 0.160293 4.2725 0.0702925 4.1725 0.0702925C4.0725 0.0702925 3.9725 0.160293 3.9725 0.260293V0.840293H2.3925V0.260293C2.3925 0.160293 2.2925 0.0702925 2.1925 0.0702925C2.0925 0.0702925 2.0025 0.160293 2.0025 0.260293V0.840293H1.2625C0.7325 0.840293 0.3125 1.26029 0.3125 1.79029V6.85029C0.3125 7.37029 0.7325 7.80029 1.2625 7.80029H7.0725C7.6125 7.80029 8.0325 7.37029 8.0325 6.85029V1.79029C8.0325 1.26029 7.6125 0.840293 7.0725 0.840293Z"
    fill="currentColor" />
</svg>