<?xml version="1.0" encoding="UTF-8"?>
<svg id="Layer_1" data-name="Layer 1" xmlns="http://www.w3.org/2000/svg" viewBox="0 0 960 720">
  <defs>
    <style>
      .cls-1 {
        fill: #192f5d;
      }

      .cls-1, .cls-2, .cls-3 {
        stroke-width: 0px;
      }

      .cls-4 {
        stroke: #fff;
        stroke-width: 37px;
      }

      .cls-2 {
        fill: #bd3d44;
      }

      .cls-3 {
        fill: #fff;
      }
    </style>
  </defs>
  <path class="cls-2" d="M-.13-.84h961.12v720.84H-.13"/>
  <path class="cls-4" d="M-.13,82.2h961.12M-.13,192.88h961.12M-.13,304.01h961.12M-.13,415.14h961.12M-.13,526.27h961.12M-.13,637.4h961.12"/>
  <path class="cls-1" d="M-.13-.84h547.84v388.2H-.13"/>
  <path class="cls-3" d="M44.92,15.68l13.52,40.55L23.9,30.69h42.05l-34.54,25.53,13.52-40.55Z"/>
  <path class="cls-3" d="M136.53,15.68l13.52,40.55-34.54-25.53h42.05l-34.54,25.53,13.52-40.55Z"/>
  <path class="cls-3" d="M228.13,15.68l13.52,40.55-34.54-25.53h42.05l-34.54,25.53,13.52-40.55Z"/>
  <path class="cls-3" d="M319.74,15.68l13.52,40.55-34.54-25.53h42.05l-34.54,25.53,13.52-40.55Z"/>
  <path class="cls-3" d="M411.35,15.68l13.52,40.55-34.54-25.53h42.05l-34.54,25.53,13.52-40.55Z"/>
  <path class="cls-3" d="M501.45,15.68l13.52,40.55-34.54-25.53h42.05l-34.54,25.53,13.52-40.55Z"/>
  <path class="cls-3" d="M91.47,54.72l13.52,40.55-34.54-25.53h42.05l-34.54,25.53,13.52-40.55Z"/>
  <path class="cls-3" d="M183.08,54.72l13.52,40.55-34.54-25.53h42.05l-34.54,25.53,13.52-40.55Z"/>
  <path class="cls-3" d="M274.69,54.72l13.52,40.55-34.54-25.53h42.05l-34.54,25.53,13.52-40.55Z"/>
  <path class="cls-3" d="M364.79,54.72l13.52,40.55-34.54-25.53h42.05l-34.54,25.53,13.52-40.55Z"/>
  <path class="cls-3" d="M456.4,54.72l13.52,40.55-34.54-25.53h42.05l-34.54,25.53,13.52-40.55Z"/>
  <path class="cls-3" d="M44.92,93.77l13.52,40.55-34.54-25.53h42.05l-34.54,25.53,13.52-40.55Z"/>
  <path class="cls-3" d="M136.53,93.77l13.52,40.55-34.54-25.53h42.05l-34.54,25.53,13.52-40.55Z"/>
  <path class="cls-3" d="M228.13,93.77l13.52,40.55-34.54-25.53h42.05l-34.54,25.53,13.52-40.55Z"/>
  <path class="cls-3" d="M319.74,93.77l13.52,40.55-34.54-25.53h42.05l-34.54,25.53,13.52-40.55Z"/>
  <path class="cls-3" d="M411.35,93.77l13.52,40.55-34.54-25.53h42.05l-34.54,25.53,13.52-40.55Z"/>
  <path class="cls-3" d="M501.45,93.77l13.52,40.55-34.54-25.53h42.05l-34.54,25.53,13.52-40.55Z"/>
  <path class="cls-3" d="M91.47,132.81l13.52,40.55-34.54-25.53h42.05l-34.54,25.53,13.52-40.55Z"/>
  <path class="cls-3" d="M183.08,132.81l13.52,40.55-34.54-25.53h42.05l-34.54,25.53,13.52-40.55Z"/>
  <path class="cls-3" d="M274.69,132.81l13.52,40.55-34.54-25.53h42.05l-34.54,25.53,13.52-40.55Z"/>
  <path class="cls-3" d="M364.79,132.81l13.52,40.55-34.54-25.53h42.05l-34.54,25.53,13.52-40.55Z"/>
  <path class="cls-3" d="M456.4,132.81l13.52,40.55-34.54-25.53h42.05l-34.54,25.53,13.52-40.55Z"/>
  <path class="cls-3" d="M44.92,171.86l13.52,40.55-34.54-25.53h42.05l-34.54,25.53,13.52-40.55Z"/>
  <path class="cls-3" d="M136.53,171.86l13.52,40.55-34.54-25.53h42.05l-34.54,25.53,13.52-40.55Z"/>
  <path class="cls-3" d="M228.13,171.86l13.52,40.55-34.54-25.53h42.05l-34.54,25.53,13.52-40.55Z"/>
  <path class="cls-3" d="M319.74,171.86l13.52,40.55-34.54-25.53h42.05l-34.54,25.53,13.52-40.55Z"/>
  <path class="cls-3" d="M411.35,171.86l13.52,40.55-34.54-25.53h42.05l-34.54,25.53,13.52-40.55Z"/>
  <path class="cls-3" d="M501.45,171.86l13.52,40.55-34.54-25.53h42.05l-34.54,25.53,13.52-40.55Z"/>
  <path class="cls-3" d="M91.47,210.9l13.52,40.55-34.54-25.53h42.05l-34.54,25.53,13.52-40.55Z"/>
  <path class="cls-3" d="M183.08,210.9l13.52,40.55-34.54-25.53h42.05l-34.54,25.53,13.52-40.55Z"/>
  <path class="cls-3" d="M274.69,210.9l13.52,40.55-34.54-25.53h42.05l-34.54,25.53,13.52-40.55Z"/>
  <path class="cls-3" d="M364.79,210.9l13.52,40.55-34.54-25.53h42.05l-34.54,25.53,13.52-40.55Z"/>
  <path class="cls-3" d="M456.4,210.9l13.52,40.55-34.54-25.53h42.05l-34.54,25.53,13.52-40.55Z"/>
  <path class="cls-3" d="M44.92,248.45l13.52,40.55-34.54-25.53h42.05l-34.54,25.53,13.52-40.55Z"/>
  <path class="cls-3" d="M136.53,248.45l13.52,40.55-34.54-25.53h42.05l-34.54,25.53,13.52-40.55Z"/>
  <path class="cls-3" d="M228.13,248.45l13.52,40.55-34.54-25.53h42.05l-34.54,25.53,13.52-40.55Z"/>
  <path class="cls-3" d="M319.74,248.45l13.52,40.55-34.54-25.53h42.05l-34.54,25.53,13.52-40.55Z"/>
  <path class="cls-3" d="M411.35,248.45l13.52,40.55-34.54-25.53h42.05l-34.54,25.53,13.52-40.55Z"/>
  <path class="cls-3" d="M501.45,248.45l13.52,40.55-34.54-25.53h42.05l-34.54,25.53,13.52-40.55Z"/>
  <path class="cls-3" d="M91.47,287.49l13.52,40.55-34.54-25.53h42.05l-34.54,25.53,13.52-40.55Z"/>
  <path class="cls-3" d="M183.08,287.49l13.52,40.55-34.54-25.53h42.05l-34.54,25.53,13.52-40.55Z"/>
  <path class="cls-3" d="M274.69,287.49l13.52,40.55-34.54-25.53h42.05l-34.54,25.53,13.52-40.55Z"/>
  <path class="cls-3" d="M364.79,287.49l13.52,40.55-34.54-25.53h42.05l-34.54,25.53,13.52-40.55Z"/>
  <path class="cls-3" d="M456.4,287.49l13.52,40.55-34.54-25.53h42.05l-34.54,25.53,13.52-40.55Z"/>
  <path class="cls-3" d="M44.92,326.54l13.52,40.55-34.54-25.53h42.05l-34.54,25.53,13.52-40.55Z"/>
  <path class="cls-3" d="M136.53,326.54l13.52,40.55-34.54-25.53h42.05l-34.54,25.53,13.52-40.55Z"/>
  <path class="cls-3" d="M228.13,326.54l13.52,40.55-34.54-25.53h42.05l-34.54,25.53,13.52-40.55Z"/>
  <path class="cls-3" d="M319.74,326.54l13.52,40.55-34.54-25.53h42.05l-34.54,25.53,13.52-40.55Z"/>
  <path class="cls-3" d="M411.35,326.54l13.52,40.55-34.54-25.53h42.05l-34.54,25.53,13.52-40.55Z"/>
  <path class="cls-3" d="M501.45,326.54l13.52,40.55-34.54-25.53h42.05l-34.54,25.53,13.52-40.55Z"/>
</svg>