<svg width="13" height="11" viewBox="0 0 13 11" fill="none" xmlns="http://www.w3.org/2000/svg">
  <path
    d="M12.3294 5.63033C12.3294 6.08033 11.9594 6.44033 11.5194 6.44033H3.69943L6.38943 9.12033C6.70943 9.44033 6.70943 9.96033 6.38943 10.2803C6.06943 10.6003 5.55943 10.6103 5.23943 10.2903C5.23943 10.2903 5.23943 10.2903 5.23943 10.2803L1.14943 6.21033C1.07943 6.12033 1.01943 6.04033 0.979434 5.94033C0.899434 5.74033 0.899434 5.52033 0.979434 5.32033C1.01943 5.22033 1.07943 5.14033 1.14943 5.05033L5.23943 0.970332C5.54943 0.650332 6.06943 0.650332 6.38943 0.970332C6.70943 1.29033 6.70943 1.81033 6.38943 2.14033L3.69943 4.81033H11.5194C11.9694 4.81033 12.3294 5.18033 12.3294 5.63033Z"
    fill="white" />
</svg>