<svg width="165" height="39" viewBox="0 0 165 39" fill="none" xmlns="http://www.w3.org/2000/svg">
  <path d="M0 38.1494H9.72322V0.80807H0V38.1494Z" fill="#00227D" />
  <path
    d="M40.0293 0.80807V14.4177C40.0293 16.289 40.0293 18.2028 40.1556 20.4144C38.5982 18.7132 37.125 17.2246 35.5255 15.6936L20.0778 0.63795H16.6684V38.1494H26.2232V22.8811C26.2232 21.5627 26.0969 20.1167 26.0128 18.5856C27.1071 19.8615 28.2857 21.0523 29.338 21.988L46.1327 38.277H49.6263V0.80807H40.0293Z"
    fill="#00227D" />
  <path
    d="M69.199 39C77.3648 39 83.5102 34.4918 83.5102 27.0916C83.5102 20.8397 79.0906 17.3097 72.1454 15.1832C69.1148 14.205 65.9579 13.0992 65.9579 11.0153C65.9579 9.48419 67.5995 8.506 70.2513 8.506C72.8189 8.506 75.3023 9.22901 78.6696 11.1003L82.6263 3.8277C78.1225 1.06325 74.25 0 69.7883 0C62.2538 0 56.0242 4.08288 56.0242 11.3555C56.0242 16.9695 59.7283 21.0949 66.7997 23.2214C70.7143 24.4122 73.5765 25.518 73.5765 27.602C73.5765 29.5158 71.514 30.4089 68.6939 30.4089C65.2844 30.4089 61.7908 29.0905 58.8444 26.7939L54.5931 34.3217C59.139 37.5114 64.19 39 69.199 39Z"
    fill="#00227D" />
  <path
    d="M106.787 30.1112C100.515 30.1112 96.8954 25.518 96.8954 19.5213C96.8954 13.482 100.473 8.9313 106.787 8.9313C113.017 8.9313 116.636 13.482 116.636 19.5213C116.594 25.4755 113.017 30.1112 106.787 30.1112ZM106.787 39C118.573 39 126.696 30.7492 126.696 19.5213C126.696 8.16576 118.615 0.04253 106.787 0.04253C94.9592 0.04253 86.8775 8.16576 86.8775 19.5213C86.8775 30.7492 94.9171 39 106.787 39Z"
    fill="#02c463" />
  <path
    d="M155.403 0.80807V14.4177C155.403 16.289 155.403 18.2028 155.529 20.4144C153.972 18.7132 152.499 17.2246 150.899 15.6936L135.452 0.63795H132.042V38.1494H141.597V22.8811C141.597 21.5627 141.471 20.1167 141.386 18.5856C142.481 19.8615 143.659 21.0523 144.712 21.988L161.506 38.277H165V0.80807H155.403Z"
    fill="#02c463" />
</svg>