<svg width="20" height="21" viewBox="0 0 10 11" fill="none" xmlns="http://www.w3.org/2000/svg">
  <path
    d="M4.88337 1.15004C2.42337 1.15004 0.423369 3.15004 0.423369 5.61004C0.423369 8.07004 2.42337 10.07 4.88337 10.07C7.34337 10.07 9.34337 8.07004 9.34337 5.61004C9.34337 3.15004 7.34337 1.15004 4.88337 1.15004ZM4.88337 10.29C2.30337 10.29 0.203369 8.19004 0.203369 5.61004C0.203369 3.03004 2.30337 0.920039 4.88337 0.920039C7.46337 0.920039 9.56337 3.03004 9.56337 5.61004C9.56337 8.19004 7.46337 10.29 4.88337 10.29Z"
    fill="#00237e" />
  <path
    d="M4.42244 8.27035C4.35244 8.21035 4.31244 8.12035 4.31244 8.00035C4.31244 7.88035 4.35244 7.79035 4.42244 7.73035C4.49244 7.66035 4.58244 7.63035 4.68244 7.63035C4.79244 7.63035 4.87244 7.66035 4.95244 7.73035C5.01244 7.79035 5.06244 7.88035 5.06244 8.00035C5.06244 8.12035 5.01244 8.21035 4.95244 8.27035C4.87244 8.33035 4.79244 8.36035 4.68244 8.36035C4.58244 8.36035 4.49244 8.33035 4.42244 8.27035ZM4.41244 6.65035C4.41244 6.40035 4.44244 6.18035 4.51244 6.00035C4.57244 5.82035 4.65244 5.66035 4.74244 5.54035C4.83244 5.41035 4.96244 5.26035 5.11244 5.09035C5.15244 5.06035 5.23244 4.98035 5.37244 4.83035C5.50244 4.69035 5.60244 4.55035 5.66244 4.42035C5.71244 4.29035 5.75244 4.16035 5.75244 4.03035C5.75244 3.84035 5.68244 3.68035 5.51244 3.53035C5.37244 3.38035 5.16244 3.31035 4.89244 3.31035C4.67244 3.31035 4.47244 3.35035 4.30244 3.43035C4.13244 3.51035 3.96244 3.63035 3.81244 3.80035L3.50244 3.45035C3.70244 3.24035 3.93244 3.09035 4.14244 2.99035C4.36244 2.89035 4.61244 2.85035 4.91244 2.85035C5.20244 2.85035 5.44244 2.90035 5.64244 3.01035C5.85244 3.12035 6.00244 3.27035 6.11244 3.45035C6.21244 3.63035 6.26244 3.81035 6.26244 4.00035C6.26244 4.18035 6.23244 4.34035 6.17244 4.49035C6.10244 4.65035 6.01244 4.79035 5.91244 4.91035C5.80244 5.04035 5.64244 5.22035 5.43244 5.46035C5.25244 5.66035 5.11244 5.84035 5.01244 6.01035C4.93244 6.18035 4.89244 6.40035 4.89244 6.68035C4.89244 6.78035 4.89244 6.88035 4.91244 7.00035H4.43244C4.42244 6.92035 4.41244 6.80035 4.41244 6.65035Z"
    fill="#00237e" />
</svg>